<svg width="222" height="223" viewBox="0 0 222 223" fill="none" xmlns="http://www.w3.org/2000/svg">
<path id="Vector" d="M144.675 111.325L144.628 123.006L156.293 123.036L156.356 111.371L144.675 111.325ZM78.6788 111.063L66.9974 111.016L66.9676 122.681L78.6323 122.744L78.6788 111.063ZM133.256 45.2825L132.994 111.279L156.356 111.371L156.619 45.3754L133.256 45.2825ZM144.721 99.6437L78.7252 99.3813L78.6323 122.744L144.628 123.006L144.721 99.6437ZM90.3601 111.109L90.6224 45.113L67.2598 45.0201L66.9974 111.016L90.3601 111.109ZM112.024 23.881C117.677 23.906 123.088 26.1743 127.069 30.1873C131.051 34.2003 133.276 39.6297 133.256 45.2825L156.619 45.3754C156.644 39.5073 155.514 33.6916 153.291 28.2607C151.068 22.8299 147.797 17.8904 143.664 13.7245C139.531 9.55861 134.617 6.24806 129.204 3.98207C123.791 1.71609 117.985 0.539092 112.117 0.518356L112.024 23.881ZM112.117 0.518356C106.249 0.492437 100.433 1.62324 95.0022 3.84611C89.5713 6.06899 84.6318 9.34037 80.4659 13.4733C76.3001 17.6061 72.9895 22.5195 70.7235 27.9325C68.4575 33.3455 67.2805 39.152 67.2598 45.0201L90.6224 45.113C90.6475 39.4602 92.9157 34.0487 96.9287 30.0675C100.942 26.0862 106.371 23.8611 112.024 23.881L112.117 0.518356ZM116.227 99.5469L107.219 99.5111L107.126 122.841L116.135 122.877L116.227 99.5469ZM16.7469 221.477L205.727 222.228L205.82 198.899L16.8397 198.148L16.7469 221.477ZM205.727 222.228C214.636 222.264 221.925 215.033 221.96 206.124L198.63 206.031C198.639 204.132 199.401 202.314 200.749 200.977C202.097 199.639 203.921 198.892 205.82 198.899L205.727 222.228ZM0.64218 205.244C0.60676 214.153 7.83746 221.442 16.7469 221.477L16.8397 198.148C20.7995 198.163 23.9875 201.377 23.9718 205.337L0.64218 205.244ZM107.219 99.5111C79.0659 99.4022 52.0222 110.48 32.0358 130.308C12.0494 150.136 0.757046 177.091 0.64218 205.244L23.9718 205.337C24.0611 183.371 32.8717 162.34 48.4658 146.869C64.0598 131.399 85.1602 122.755 107.126 122.841L107.219 99.5111ZM116.135 122.877C138.101 122.966 159.132 131.776 174.602 147.37C190.073 162.965 198.716 184.065 198.63 206.031L221.96 206.124C222.069 177.971 210.991 150.927 191.163 130.941C171.335 110.954 144.38 99.6618 116.227 99.5469L116.135 122.877Z" fill="white"/>
</svg>
